<svg xmlns="http://www.w3.org/2000/svg" width="51" height="57" viewBox="0 0 51 57"><defs><clipPath id="2wsra"><path fill="#fff" d="M50.645 54.228l-.855.113.86.989-1.928 1.665-14.308-16.44a21.657 21.657 0 0 1-13.283 3.386C9.179 43.093.178 32.752 1.028 20.842 1.877 8.932 12.255-.035 24.207.812 36.159 1.66 45.159 12 44.31 23.91a21.518 21.518 0 0 1-7.126 14.534z"/></clipPath></defs><g><g opacity=".87"><path fill="none" stroke="#34a853" stroke-miterlimit="20" stroke-width="4" d="M50.645 54.228l-.855.113.86.989-1.928 1.665-14.308-16.44a21.657 21.657 0 0 1-13.283 3.386C9.179 43.093.178 32.752 1.028 20.842 1.877 8.932 12.255-.035 24.207.812 36.159 1.66 45.159 12 44.31 23.91a21.518 21.518 0 0 1-7.126 14.534z" clip-path="url(&quot;#2wsra&quot;)"/></g></g></svg>